# xmcd CD database file
#
# Track frame offsets:
#	182
#	24457
#	42650
#	62210
#	84322
#	88332
#	113287
#	134437
#	155687
#	156297
#	178602
#	196520
#	220560
#	243035
#	267852
#	275772
#
# Disc length: 3998 seconds
#
# Revision: 3
# Processed by: cddbd v1.5.1PL0 Copyright (c) Steve Scherf et al.
# Submitted via: CDex 1.51
#
DISCID=d60f9c10
DTITLE=Portrait - Portrait
DYEAR=1992
DGENRE=R&B
TTITLE0=Commitment
TTITLE1=Honey Dip
TTITLE2=Here We Go Again!
TTITLE3=You
TTITLE4=Interlude: Passion
TTITLE5=On And On
TTITLE6=Precious Moments
TTITLE7=Down Wit Dat
TTITLE8=Interlude: Snap Along!
TTITLE9=Problems
TTITLE10=Feelings
TTITLE11=Day By Day
TTITLE12=Heartache
TTITLE13=Yours Forever
TTITLE14=Interlude: Why?
TTITLE15=Here We Go Again (Extended)
EXTD=YEAR: 1992
EXTT0=
EXTT1=
EXTT2=
EXTT3=
EXTT4=
EXTT5=
EXTT6=
EXTT7=
EXTT8=
EXTT9=
EXTT10=
EXTT11=
EXTT12=
EXTT13=
EXTT14=
EXTT15=
PLAYORDER=
